<?xml version="1.0" encoding="UTF-8"?>
<svg xmlns="http://www.w3.org/2000/svg" viewBox="0 0 1080 1080">
  <defs>
    <style>
      .cls-1 {
        fill: #fdd200;
      }

      .cls-2 {
        fill: #ff671c;
      }

      .cls-3 {
        fill: #533000;
      }
    </style>
  </defs>
  <g id="bg">
    <rect class="cls-2" x="-76.54" y="-25.33" width="1233.46" height="1145.92"/>
  </g>
  <g id="logo">
    <path class="cls-1" d="M660.99,574.72h-152.92c-47.33,0-78.43-36.32-68.09-83.62,11.03-50.55,62.64-92.44,112.65-92.51h333.37l42.61-33.52h-367c-68.63.09-139.44,57.29-155.26,126.44-15.04,65.71,27.41,116.72,93.19,116.72h152.46c9.25,0,18.74-7.51,21.25-16.75,2.47-9.26-3.02-16.76-12.26-16.76Z"/>
    <path class="cls-1" d="M783.01,588.53c15.04-65.72-27.42-116.71-93.22-116.71h-152.46c-9.25,0-18.74,7.47-21.21,16.77-2.5,9.23,3.01,16.74,12.24,16.74h152.92c47.37,0,78.43,36.28,68.13,83.56-11.03,50.55-62.67,92.45-112.69,92.52h-321.36l-42.58,33.51h354.96c68.64-.07,139.44-57.25,155.29-126.39Z"/>
    <polygon class="cls-3" points="315.34 681.41 189.97 681.41 147.39 714.92 272.76 714.92 315.34 681.41"/>
  </g>
</svg>