<?xml version="1.0" encoding="UTF-8"?>
<svg id="Camada_1" xmlns="http://www.w3.org/2000/svg" version="1.1" viewBox="0 0 1233.85 398.47">
  <!-- Generator: Adobe Illustrator 29.5.1, SVG Export Plug-In . SVG Version: 2.1.0 Build 141)  -->
  <defs>
    <style>
      .st0 {
        fill: #fdd200;
      }

      .st1 {
        fill: #ff671c;
      }

      .st2 {
        fill: #533000;
      }
    </style>
  </defs>
  <g id="logo">
    <path class="st1" d="M1035.46,153.24h-107.79c-33.37,0-55.28-25.6-48-58.94,7.78-35.63,44.15-65.15,79.4-65.21h234.98l30.04-23.62h-258.67c-48.37.06-98.29,40.38-109.43,89.12-10.6,46.31,19.32,82.27,65.69,82.27h107.47c6.52,0,13.21-5.29,14.97-11.81,1.74-6.53-2.13-11.81-8.65-11.81h-.01Z"/>
    <path class="st1" d="M1121.47,162.98c10.6-46.32-19.33-82.27-65.71-82.27h-107.47c-6.52,0-13.21,5.27-14.95,11.82-1.76,6.51,2.13,11.8,8.62,11.8h107.78c33.39,0,55.28,25.57,48.02,58.9-7.78,35.63-44.17,65.16-79.44,65.21h-226.51l-30.01,23.62h250.19c48.39-.04,98.29-40.35,109.46-89.08h.01Z"/>
    <polygon class="st0" points="791.83 228.45 703.47 228.45 673.46 252.07 761.82 252.07 791.83 228.45"/>
    <g>
      <path class="st2" d="M45.28,345.31c-21.52-3.05-28.59-14.68-26.03-29.21,4.75-26.88,34.96-34.16,72.06-34.16,50.85,0,69.67,12.07,67.39,34.01h-52.44c.75-4.22-1.52-6.83-5.41-8.29-3.72-1.59-8.73-2.18-13.69-2.18-13.42,0-18.61,3.05-19.37,7.42-.51,2.91.59,4.79,4.97,5.37l52.6,7.26c22.17,3.05,34.55,12.65,31.44,30.24-4.46,25.29-29.27,37.21-79.95,37.21-34.69,0-71.83-4.36-66.59-34.88h54.36c-.46,3.49.58,5.82,3.49,7.41,3.1,1.45,7.93,2.18,14.97,2.18,14.07,0,18.52-3.49,19.39-8.43.55-3.05-1-6.11-6.93-6.97l-50.25-6.97h0Z"/>
      <path class="st2" d="M215.96,285.58h55.32l30.3,103.78h-47.96l-2.7-11.92h-47l-6.9,11.92h-47.97l66.9-103.78h.01ZM238.25,316.97h-.32l-19.63,35.18h27.18l-7.23-35.18Z"/>
      <path class="st2" d="M327.62,285.58h94.98c12.96,0,20.61,1.01,26.36,3.78,7.81,3.78,13.07,13.8,11.07,25.15-1.72,9.74-8.04,20.21-21.77,23.7l-.04.29c6.41,1.75,10.92,6.97,10.13,15.99l-2.07,22.67c-.35,4.66,1.13,9.01,3.43,12.21h-49.24c-1.07-3.05-.28-7.55,1.06-19.62.89-7.71-1.18-12.36-9.49-12.36h-31.97l-5.64,31.97h-45.09l18.29-103.78h0ZM364.66,331.22h31.97c8.8,0,13.04-3.2,14.19-9.74,1.38-7.85-3.89-9.75-11.39-9.75h-31.34l-3.43,19.49h-.01Z"/>
      <path class="st2" d="M480.76,285.58h45.08l-18.29,103.78h-45.1l18.32-103.78Z"/>
      <path class="st2" d="M577.38,311.73h-41.73l4.61-26.16h128.55l-4.61,26.16h-41.73l-13.68,77.62h-45.09l13.68-77.62h.01Z"/>
      <path class="st2" d="M680.35,285.58h45.09l-11.07,62.79c-2.35,13.37,5.37,17.59,20.09,17.59s23.93-4.22,26.28-17.59l11.07-62.79h45.09l-11.35,64.4c-5.83,33-29.5,43.03-75.87,43.03s-66.5-10.03-60.67-43.03l11.35-64.4h0Z"/>
      <path class="st2" d="M836.96,285.58h94.98c12.96,0,20.6,1.01,26.36,3.78,7.81,3.78,13.08,13.8,11.07,25.15-1.73,9.74-8.03,20.21-21.77,23.7l-.06.29c6.41,1.75,10.92,6.97,10.14,15.99l-2.08,22.67c-.33,4.66,1.13,9.01,3.44,12.21h-49.24c-1.06-3.05-.27-7.55,1.06-19.62.87-7.71-1.18-12.36-9.49-12.36h-31.97l-5.64,31.97h-45.09l18.29-103.78h0ZM874.01,331.22h31.97c8.79,0,13.05-3.2,14.19-9.74,1.38-7.85-3.88-9.75-11.39-9.75h-31.34l-3.43,19.49h-.01Z"/>
    </g>
  </g>
</svg>