<?xml version="1.0" encoding="UTF-8"?>
<svg xmlns="http://www.w3.org/2000/svg" viewBox="0 0 1233.85 551.85">
  <defs>
    <style>
      .cls-1 {
        fill: #fdd200;
      }

      .cls-2 {
        fill: #ff671c;
      }

      .cls-3 {
        fill: #fff;
      }

      .cls-4 {
        fill: #533000;
      }
    </style>
  </defs>
  <g id="bg">
    <rect class="cls-3" x=".39" y="0" width="1233.46" height="551.85"/>
  </g>
  <g id="logo">
    <path class="cls-2" d="M992.6,234.64h-96.75c-29.95,0-49.62-22.98-43.08-52.9,6.98-31.98,39.63-58.48,71.27-58.53h210.91l26.96-21.2h-232.18c-43.42.05-88.22,36.24-98.22,79.99-9.51,41.57,17.34,73.84,58.96,73.84h96.46c5.85,0,11.86-4.75,13.44-10.6,1.56-5.86-1.91-10.6-7.76-10.6Z"/>
    <path class="cls-2" d="M1069.8,243.38c9.51-41.58-17.35-73.84-58.98-73.84h-96.46c-5.85,0-11.86,4.73-13.42,10.61-1.58,5.84,1.91,10.59,7.74,10.59h96.74c29.97,0,49.62,22.95,43.1,52.87-6.98,31.98-39.65,58.49-71.3,58.53h-203.31l-26.94,21.2h224.57c43.43-.04,88.22-36.22,98.25-79.96Z"/>
    <polygon class="cls-1" points="773.92 302.15 694.61 302.15 667.67 323.35 746.98 323.35 773.92 302.15"/>
    <g>
      <path class="cls-4" d="M103.83,407.04c-19.32-2.74-25.66-13.18-23.36-26.22,4.26-24.13,31.38-30.66,64.68-30.66,45.64,0,62.53,10.83,60.49,30.53h-47.07c.67-3.79-1.36-6.13-4.86-7.44-3.34-1.43-7.84-1.96-12.29-1.96-12.05,0-16.7,2.74-17.39,6.66-.46,2.61.53,4.3,4.46,4.82l47.21,6.52c19.9,2.74,31.01,11.35,28.22,27.14-4,22.7-26.27,33.4-71.76,33.4-31.14,0-64.47-3.91-59.77-31.31h48.79c-.41,3.13.52,5.22,3.13,6.65,2.78,1.3,7.12,1.96,13.44,1.96,12.63,0,16.62-3.13,17.4-7.57.49-2.74-.9-5.48-6.22-6.26l-45.1-6.26Z"/>
      <path class="cls-4" d="M257.03,353.42h49.65l27.2,93.15h-43.05l-2.42-10.7h-42.19l-6.19,10.7h-43.06l60.05-93.15ZM277.04,381.6h-.29l-17.62,31.58h24.4l-6.49-31.58Z"/>
      <path class="cls-4" d="M357.25,353.42h85.25c11.63,0,18.5.91,23.66,3.39,7.01,3.39,11.73,12.39,9.94,22.57-1.54,8.74-7.22,18.14-19.54,21.27l-.04.26c5.75,1.57,9.8,6.26,9.09,14.35l-1.86,20.35c-.31,4.18,1.01,8.09,3.08,10.96h-44.2c-.96-2.74-.25-6.78.95-17.61.8-6.92-1.06-11.09-8.52-11.09h-28.7l-5.06,28.7h-40.47l16.42-93.15ZM390.5,394.39h28.7c7.9,0,11.7-2.87,12.74-8.74,1.24-7.05-3.49-8.75-10.22-8.75h-28.13l-3.08,17.49Z"/>
      <path class="cls-4" d="M494.71,353.42h40.46l-16.42,93.15h-40.48l16.44-93.15Z"/>
      <path class="cls-4" d="M581.43,376.9h-37.46l4.14-23.48h115.38l-4.14,23.48h-37.46l-12.28,69.67h-40.47l12.28-69.67Z"/>
      <path class="cls-4" d="M673.86,353.42h40.47l-9.94,56.36c-2.11,12,4.82,15.79,18.03,15.79s21.48-3.79,23.59-15.79l9.94-56.36h40.47l-10.19,57.8c-5.23,29.62-26.48,38.62-68.1,38.62s-59.69-9-54.46-38.62l10.19-57.8Z"/>
      <path class="cls-4" d="M814.43,353.42h85.25c11.63,0,18.49.91,23.66,3.39,7.01,3.39,11.74,12.39,9.94,22.57-1.55,8.74-7.21,18.14-19.54,21.27l-.05.26c5.75,1.57,9.8,6.26,9.1,14.35l-1.87,20.35c-.3,4.18,1.01,8.09,3.09,10.96h-44.2c-.95-2.74-.24-6.78.95-17.61.78-6.92-1.06-11.09-8.52-11.09h-28.7l-5.06,28.7h-40.47l16.42-93.15ZM847.68,394.39h28.7c7.89,0,11.71-2.87,12.74-8.74,1.24-7.05-3.48-8.75-10.22-8.75h-28.13l-3.08,17.49Z"/>
    </g>
  </g>
</svg>