<?xml version="1.0" encoding="UTF-8"?>
<svg id="logo" xmlns="http://www.w3.org/2000/svg" version="1.1" viewBox="0 0 563.96 141.18">
  <!-- Generator: Adobe Illustrator 29.5.1, SVG Export Plug-In . SVG Version: 2.1.0 Build 141)  -->
  <defs>
    <style>
      .st0 {
        fill: #3338ff;
      }
    </style>
  </defs>
  <path class="st0" d="M302.08,34.54c-6.45-10.64-15.4-19.11-26.62-25.17C264.25,3.32,251.44.25,237.39.25s-26.88,3.07-38.16,9.13c-11.29,6.06-20.24,14.53-26.62,25.17-6.38,10.65-9.62,22.77-9.62,36.05s3.24,25.4,9.62,36.04c3.2,5.32,7.03,10.11,11.47,14.31,4.45,4.21,9.51,7.83,15.15,10.86,11.27,6.06,24.11,9.13,38.16,9.13s26.86-3.06,38.07-9.13c11.21-6.06,20.17-14.53,26.62-25.17,6.45-10.64,9.72-22.77,9.72-36.04s-3.28-25.4-9.72-36.05h0ZM267.4,101.51c-2.51,2.54-5.37,4.73-8.54,6.54-6.36,3.62-13.59,5.46-21.45,5.46s-15.12-1.83-21.45-5.46c-6.35-3.62-11.41-8.75-15.04-15.22-3.62-6.48-5.46-13.97-5.46-22.23s1.83-15.75,5.46-22.23,8.68-11.6,15.04-15.22c6.35-3.62,13.56-5.46,21.45-5.46s15.09,1.85,21.45,5.46c6.35,3.61,11.4,8.73,15.03,15.22s5.46,13.97,5.46,22.23-1.83,15.75-5.46,22.23c-1.81,3.23-3.98,6.15-6.49,8.68h.01Z"/>
  <path class="st0" d="M435.47,97.3l20.65,19.07-.23.27c-6.46,7.88-14.58,13.96-24.11,18.09-9.54,4.12-20.33,6.21-32.04,6.21-13.79,0-26.43-3.04-37.57-9.03-5.58-2.99-10.59-6.61-15-10.79-4.42-4.19-8.24-8.96-11.42-14.28-6.38-10.64-9.62-22.83-9.62-36.23s3.23-25.61,9.62-36.24c6.38-10.65,15.27-19.08,26.44-25.08,11.14-6,23.85-9.03,37.77-9.03,11.72,0,22.47,2.09,31.94,6.21,9.48,4.13,17.56,10.14,24.01,17.89l.24.27-20.65,19.07-.25-.29c-9.04-10.43-20.38-15.72-33.73-15.72-8.27,0-15.75,1.85-22.23,5.46-6.47,3.61-11.59,8.73-15.22,15.22-3.62,6.48-5.46,13.97-5.46,22.23s1.85,15.75,5.46,22.23c3.62,6.47,8.75,11.59,15.22,15.22,6.48,3.62,13.97,5.46,22.23,5.46,13.35,0,24.69-5.35,33.72-15.9l.26-.3-.02.02Z"/>
  <polygon class="st0" points="494.15 71.02 561.3 138.17 519.98 138.17 452.84 71.03 521.67 2.19 562.98 2.19 494.15 71.02"/>
  <path class="st0" d="M122.58,93.85c7.55-4.42,13.8-10.79,18.1-18.43,4.1-7.3,6.27-15.62,6.27-24.05s-2.06-16.31-5.95-23.47c-8.63-15.87-25.2-25.71-43.23-25.71H.98l43.3,72.67H13.29l15.26,25.61h.07v.11l22.44,37.66h9.62v-37.78h32.08l22.51,37.78h33.77l-26.45-44.39h-.01ZM106.93,68.47c-4.34,4.12-10.02,6.38-15.99,6.38h-30.24V28.45h30.24c12.79,0,23.2,10.4,23.2,23.2,0,6.4-2.56,12.38-7.2,16.8h0Z"/>
</svg>